<svg width="30" height="30" viewBox="0 0 30 30" fill="none" xmlns="http://www.w3.org/2000/svg">
<g id="brain" clip-path="url(#clip0_2151_3756)">
<path id="Vector" fill-rule="evenodd" clip-rule="evenodd" d="M16.5666 4.08764C17.0477 3.96933 17.5509 3.97064 18.031 4.09258C18.5111 4.21458 18.9542 4.45389 19.3213 4.78772C19.6883 5.12162 19.9692 5.54094 20.1374 6.00884L20.2276 6.25949H20.698C21.5009 6.25956 22.2721 6.57971 22.8402 7.14971C23.4082 7.7198 23.7268 8.49394 23.7268 9.30059V9.31663L23.7293 9.33269C23.7445 9.50794 23.7445 9.68464 23.7293 9.85991L23.7083 10.1007L23.9169 10.2217C24.5522 10.5898 25.0798 11.1204 25.4456 11.7589C25.8112 12.3975 26.0029 13.1224 26 13.8591C25.9979 14.4835 25.8565 15.0995 25.5863 15.6618C25.316 16.2243 24.9224 16.7199 24.4367 17.1101L24.1923 17.3064L24.3405 17.5842C24.6796 18.2192 24.8502 18.932 24.8344 19.6524C24.8184 20.3726 24.6169 21.0766 24.2504 21.6959C23.8836 22.3151 23.3629 22.8292 22.7402 23.1874C22.1176 23.5453 21.4129 23.7359 20.6955 23.7406H20.2276L20.1374 23.9911C19.9692 24.4591 19.6884 24.8783 19.3213 25.2123C18.9542 25.5462 18.5111 25.7854 18.031 25.9074C17.5509 26.0294 17.0477 26.0307 16.5666 25.9123C16.0858 25.7941 15.641 25.5592 15.2714 25.2283L15.0183 25.0011L14.7652 25.2283C14.3955 25.5594 13.9497 25.794 13.4687 25.9123C12.9878 26.0307 12.4844 26.0293 12.0043 25.9074C11.5243 25.7855 11.0812 25.546 10.7141 25.2123C10.347 24.8785 10.0673 24.4591 9.89914 23.9911L9.809 23.7406H9.33487C8.61298 23.745 7.90144 23.5603 7.27164 23.2059C6.64212 22.8515 6.11464 22.3387 5.74182 21.7181C5.36899 21.0972 5.16361 20.3895 5.14545 19.6647C5.12733 18.9401 5.29684 18.223 5.63811 17.5842L5.78628 17.3077L5.54303 17.1114C5.01568 16.6826 4.60077 16.1304 4.33424 15.5038C4.06771 14.8769 3.95795 14.1939 4.01445 13.5146C4.07095 12.8356 4.29154 12.1806 4.65774 11.607C5.02407 11.0333 5.52506 10.558 6.11594 10.2229L6.32832 10.1031L6.30733 9.85991C6.29215 9.68459 6.29213 9.50799 6.30733 9.33269L6.30856 9.31663V9.30059C6.30856 8.49376 6.62812 7.71983 7.19632 7.14971C7.76444 6.57992 8.53461 6.25949 9.33733 6.25949H9.809L9.89914 6.00884C10.0673 5.54094 10.347 5.1216 10.7141 4.78772C11.0812 4.45392 11.5243 4.21455 12.0043 4.09258C12.4844 3.9707 12.9878 3.96934 13.4687 4.08764C13.9497 4.20603 14.3955 4.44055 14.7652 4.77167L15.0183 4.99885L15.2714 4.77167C15.641 4.4408 16.0858 4.20593 16.5666 4.08764ZM12.7452 5.50138C12.343 5.50148 11.9574 5.66221 11.6734 5.94711C11.3896 6.23203 11.2302 6.61782 11.2302 7.02007V7.02377C11.2324 7.28529 11.2989 7.54244 11.424 7.77201L11.4253 7.77325C11.5199 7.94559 11.5441 8.14853 11.4932 8.33874C11.4428 8.52696 11.3221 8.68792 11.1573 8.78941C11.0711 8.83954 10.9757 8.87267 10.877 8.88572C10.7784 8.89872 10.678 8.8919 10.5819 8.86597C10.4859 8.83995 10.3953 8.79491 10.3165 8.73384C10.2404 8.67484 10.1764 8.60098 10.1276 8.51777C10.054 8.36351 9.98954 8.20486 9.93617 8.04241L9.86209 7.81769L9.62873 7.78436L9.45587 7.77325C9.41634 7.77326 9.37672 7.77684 9.33733 7.78066L9.1867 7.78807C8.83985 7.82275 8.51401 7.9773 8.26559 8.22639C7.98844 8.50447 7.83111 8.87904 7.82356 9.27095C7.80151 9.55737 7.8658 9.84413 8.00877 10.0933L8.01 10.097C8.10546 10.2589 8.23308 10.3992 8.3829 10.5106L8.5397 10.6131C8.71139 10.7142 8.83817 10.8787 8.89036 11.0724C8.94309 11.2684 8.91575 11.478 8.81504 11.6539C8.71435 11.8297 8.54759 11.958 8.35326 12.0108C8.16014 12.063 7.95434 12.0359 7.78034 11.9367C7.61746 11.8342 7.46382 11.7167 7.32227 11.586L7.11854 11.3983L6.87653 11.5354C6.43597 11.7868 6.07634 12.1599 5.84059 12.6096C5.60485 13.0594 5.50353 13.5678 5.54673 14.074C5.58997 14.5801 5.77647 15.0636 6.08507 15.4667C6.39117 15.8664 6.80463 16.1701 7.27658 16.3434C7.57065 16.4606 7.88492 16.519 8.20139 16.5175C8.40147 16.5176 8.59414 16.5998 8.73602 16.7422C8.87773 16.8847 8.95827 17.0786 8.95827 17.2805C8.95811 17.4822 8.87759 17.6753 8.73602 17.8176C8.59414 17.96 8.40147 18.0409 8.20139 18.0412C7.96529 18.0414 7.72753 18.0199 7.49513 17.9781L7.24695 17.9337L7.10989 18.1461C6.83922 18.5664 6.69152 19.0547 6.68514 19.5548V19.5598C6.68514 20.2646 6.96467 20.9414 7.46179 21.4402C7.95891 21.9389 8.63388 22.2193 9.33733 22.2193C9.96229 22.2198 10.5668 21.9977 11.045 21.5946L11.0462 21.5959C11.1227 21.532 11.2107 21.4833 11.3055 21.4539C11.4004 21.4243 11.5005 21.4138 11.5993 21.423C11.698 21.4321 11.7943 21.4606 11.8821 21.507C11.97 21.5534 12.0493 21.6177 12.113 21.6946C12.1764 21.7712 12.2242 21.8598 12.2537 21.9552C12.2833 22.0508 12.2937 22.1518 12.2846 22.2514C12.2755 22.351 12.247 22.4483 12.2007 22.5367C12.1776 22.5806 12.1501 22.6229 12.1192 22.6613L12.0142 22.7675C11.8575 22.8927 11.6918 23.0066 11.5191 23.1084L11.2302 23.2787L11.3635 23.5874C11.4806 23.8565 11.6733 24.0861 11.9179 24.2479C12.1626 24.4098 12.4494 24.4966 12.7427 24.4987H12.7452C13.1474 24.4985 13.5341 24.3378 13.8181 24.0529C14.1017 23.768 14.2613 23.382 14.2614 22.9799V20.6982C14.2585 20.1545 14.0887 19.624 13.7762 19.1794C13.4635 18.735 13.022 18.3967 12.5118 18.2115L12.5032 18.2091L12.3673 18.1472C12.2383 18.0728 12.1322 17.9612 12.0648 17.8251C11.9751 17.6435 11.9609 17.4331 12.0253 17.241C12.0898 17.049 12.228 16.8912 12.4081 16.8015C12.5874 16.7123 12.795 16.6974 12.9847 16.7608C13.229 16.8536 13.4666 16.9651 13.6934 17.0953L14.2614 17.4225V14.9975C14.2584 14.4538 14.0888 13.9233 13.7762 13.4788C13.4635 13.0346 13.0219 12.6973 12.5118 12.5121L12.5032 12.5084C12.3128 12.4439 12.1545 12.3068 12.0648 12.1256C11.9751 11.9442 11.961 11.7336 12.0253 11.5416C12.0898 11.3495 12.2278 11.1906 12.4081 11.1008C12.5855 11.0126 12.7905 10.9979 12.9785 11.0588C13.225 11.1522 13.4647 11.2646 13.6934 11.3959L14.2614 11.7218V7.02007C14.2613 6.61802 14.1017 6.23198 13.8181 5.94711C13.5341 5.66212 13.1474 5.50146 12.7452 5.50138ZM17.2902 5.50138C16.8879 5.50138 16.5025 5.66212 16.2184 5.94711C15.9344 6.23205 15.7753 6.61768 15.7752 7.02007V11.7218L16.3432 11.3959C16.5714 11.265 16.8096 11.152 17.0555 11.0588C17.2439 10.9975 17.4495 11.0123 17.6273 11.1008C17.8075 11.1906 17.9455 11.3495 18.01 11.5416C18.0744 11.7336 18.0602 11.9442 17.9706 12.1256C17.8808 12.3068 17.7225 12.4439 17.5322 12.5084L17.5247 12.5121C17.0143 12.6972 16.5719 13.0344 16.2591 13.4788C15.9464 13.9233 15.7782 14.4537 15.7752 14.9975V17.4225L16.3432 17.0953C16.5694 16.9654 16.8057 16.8534 17.0493 16.7608C17.2395 16.697 17.4475 16.7119 17.6273 16.8015C17.8073 16.8912 17.9455 17.049 18.01 17.241C18.0745 17.4331 18.0602 17.6435 17.9706 17.8251C17.8808 18.0064 17.7227 18.1446 17.5322 18.2091L17.5247 18.2115C17.0143 18.3967 16.5719 18.7349 16.2591 19.1794C15.9466 19.624 15.7781 20.1544 15.7752 20.6982V22.9799C15.7753 23.3824 15.9344 23.768 16.2184 24.0529C16.5025 24.3378 16.8879 24.4987 17.2902 24.4987H17.2926C17.5859 24.4966 17.8728 24.4099 18.1175 24.2479C18.362 24.0861 18.5547 23.8564 18.6719 23.5874L18.8052 23.2787L18.5163 23.1084C18.343 23.0064 18.177 22.8919 18.0199 22.7664C17.8662 22.6373 17.7691 22.4523 17.7507 22.2514C17.7323 22.0501 17.7941 21.8499 17.9224 21.6946C18.051 21.5393 18.2363 21.4415 18.436 21.423C18.6357 21.4046 18.8358 21.4669 18.9904 21.5959C19.4686 21.9989 20.0731 22.2185 20.698 22.2182C21.4014 22.218 22.0765 21.9387 22.5736 21.4402C23.0706 20.9414 23.3501 20.2646 23.3501 19.5598V19.5548C23.3438 19.0548 23.196 18.5664 22.9254 18.1461L22.7884 17.9337L22.5402 17.9781C22.3078 18.0199 22.0714 18.0414 21.8352 18.0412C21.6352 18.0409 21.4412 17.9599 21.2993 17.8176C21.1577 17.6753 21.0772 17.4822 21.0771 17.2805C21.0771 17.0786 21.1576 16.8847 21.2993 16.7422C21.4412 16.5999 21.6339 16.5189 21.8339 16.5186C22.1235 16.5201 22.4102 16.4687 22.6822 16.3706H22.7329L22.797 16.3471C23.2707 16.1687 23.684 15.8577 23.9874 15.4519C24.2904 15.046 24.4719 14.561 24.5095 14.0555C24.5472 13.5497 24.4395 13.0427 24.1997 12.596C23.9598 12.1496 23.5971 11.7811 23.1552 11.5342L22.9205 11.4021L22.718 11.5823C22.5665 11.7171 22.3997 11.8339 22.2217 11.9305L22.213 11.9355C22.0384 12.0362 21.8308 12.0634 21.6364 12.0108C21.442 11.9581 21.2753 11.8298 21.1746 11.6539C21.0739 11.478 21.0477 11.2684 21.1006 11.0724C21.1533 10.8766 21.2804 10.7089 21.4549 10.6081C21.6615 10.4934 21.8366 10.3293 21.9624 10.1291L21.9611 10.1278C22.1226 9.88277 22.212 9.59676 22.2142 9.30305V9.30059C22.2142 8.89827 22.0548 8.51136 21.771 8.22639C21.487 7.94139 21.1002 7.78073 20.698 7.78066C20.6013 7.77131 20.5031 7.77088 20.4066 7.78436L20.1671 7.81893L20.0967 8.05105C20.0454 8.22152 19.9813 8.38779 19.9078 8.54988C19.8587 8.63371 19.7954 8.7078 19.7189 8.76719C19.64 8.82841 19.5496 8.87444 19.4534 8.90054C19.3574 8.92645 19.2568 8.93323 19.1583 8.92028C19.0597 8.90726 18.9642 8.87407 18.878 8.82398C18.7924 8.77385 18.7173 8.70702 18.657 8.62767C18.5967 8.54805 18.5528 8.45664 18.5274 8.35973C18.5021 8.26304 18.4954 8.16245 18.5088 8.0634C18.5224 7.96407 18.556 7.86829 18.6064 7.78188L18.6113 7.77201C18.7365 7.54245 18.803 7.28526 18.8052 7.02377V7.02007C18.8052 6.61785 18.6456 6.23201 18.3619 5.94711C18.0779 5.66216 17.6924 5.5015 17.2902 5.50138Z" fill="#F2EFEA"/>
</g>
<defs>
<clipPath id="clip0_2151_3756">
<rect width="30" height="30" fill="white"/>
</clipPath>
</defs>
</svg>
