<svg width="69" height="40" viewBox="0 0 69 40" fill="none" xmlns="http://www.w3.org/2000/svg">
<path d="M63.5056 29.7838C63.6596 29.464 64.1145 29.464 64.2685 29.7838L65.6133 32.5771C65.6549 32.6635 65.7245 32.7333 65.8109 32.7749L68.6005 34.1215C68.9199 34.2757 68.9199 34.7312 68.6005 34.8853L65.8109 36.2319C65.7245 36.2736 65.6549 36.3433 65.6133 36.4297L64.2685 39.223C64.1145 39.5429 63.6596 39.5429 63.5056 39.223L62.1608 36.4297C62.1192 36.3433 62.0496 36.2736 61.9633 36.2319L59.1736 34.8853C58.8542 34.7312 58.8542 34.2757 59.1736 34.1215L61.9633 32.7749C62.0496 32.7333 62.1192 32.6635 62.1608 32.5771L63.5056 29.7838Z" fill="#F2EFEA"/>
<path d="M8.51097 31.3161L2.87218 16.8497C1.93886 14.4387 1.43332 13.4276 0.5 12.6109V12.5331H6.02213V12.6109C5.39992 13.3498 5.1277 14.672 5.90546 16.7331L9.83317 27.0773L13.4887 17.433C14.3831 14.9831 13.9942 13.3887 13.0998 12.6109V12.5331H17.1053V12.6109C15.822 13.7776 15.2775 14.7109 14.422 17.0053L8.89986 31.3161H8.51097Z" fill="#F2EFEA"/>
<path d="M32.9896 26.2218L33.184 26.3385C32.2118 29.4106 29.5674 31.6272 25.7175 31.6272C20.5842 31.6272 17.1621 27.6995 17.1621 22.0996C17.1621 15.9164 21.4787 11.9498 25.9897 11.9498C30.5007 11.9498 33.4174 15.8386 33.1063 19.4552H20.1565C20.1176 19.6497 20.1176 19.883 20.1176 20.1163V20.7774C20.1176 26.0273 22.6064 29.1384 27.0008 29.1384C29.373 29.1384 31.6285 28.2051 32.9896 26.2218ZM25.8342 12.6498C22.7231 12.6498 20.7398 15.0998 20.2343 18.833L29.9563 18.6386V18.3275C29.9563 14.4387 28.5174 12.6498 25.8342 12.6498Z" fill="#F2EFEA"/>
<path d="M35.977 31.0439V30.9662C36.5992 29.7606 36.8325 28.5162 36.8325 26.0662V6.27213C36.8325 4.44438 35.977 3.43329 35.0826 2.69441V2.61664L39.6714 0.75V26.0273C39.6714 28.4773 39.788 29.7606 40.5269 30.9662V31.0439H35.977Z" fill="#F2EFEA"/>
<path d="M49.6587 29.9162C51.4086 29.9162 53.0419 29.1773 53.9364 28.2829V21.8274C50.3198 22.4496 46.4698 23.9663 46.4698 27.0773C46.4698 28.7495 47.4809 29.9162 49.6587 29.9162ZM56.8141 31.5106C54.9863 31.5106 54.0919 30.3828 53.9364 28.944C52.6531 30.3828 50.5531 31.6272 48.0642 31.6272C45.5365 31.6272 43.7088 30.3439 43.7088 27.9718C43.7088 23.6941 49.6587 21.7496 53.9364 21.2441V17.3553C53.9364 15.2942 53.0419 13.6609 49.9309 13.6609C48.1031 13.6609 46.1198 14.2442 44.6032 15.372L44.4088 15.1386C45.9643 13.272 48.492 11.9498 51.6031 11.9498C55.803 11.9498 56.7752 14.2053 56.7752 16.6553V28.0884C56.7752 29.0606 57.203 29.7606 58.2919 29.7606C59.0307 29.7606 59.5752 29.4106 60.1585 28.944L60.2752 29.0217C59.8863 30.0328 58.8752 31.5106 56.8141 31.5106Z" fill="#F2EFEA"/>
</svg>
