<svg width="31" height="30" viewBox="0 0 31 30" fill="none" xmlns="http://www.w3.org/2000/svg">
<path d="M12.7616 16.5782C12.7003 16.4665 12.6177 16.368 12.5183 16.2882C12.419 16.2085 12.305 16.1491 12.1827 16.1135C12.0604 16.0778 11.9323 16.0666 11.8057 16.0804C11.6791 16.0943 11.5564 16.1329 11.4447 16.1942C11.333 16.2554 11.2345 16.3381 11.1548 16.4374C11.0751 16.5367 11.0157 16.6508 10.98 16.7731C10.9443 16.8954 10.9331 17.0235 10.947 17.1501C10.9608 17.2767 10.9995 17.3994 11.0607 17.511C11.9286 19.0945 13.6168 20.0788 15.4651 20.0788C17.2571 20.0788 18.923 19.1479 19.8113 17.6487C19.8789 17.5391 19.9239 17.4172 19.9439 17.29C19.9638 17.1628 19.9583 17.0329 19.9275 16.9079C19.8967 16.7828 19.8413 16.6652 19.7646 16.5618C19.6878 16.4584 19.5913 16.3713 19.4805 16.3057C19.3698 16.24 19.2471 16.197 19.1195 16.1793C18.992 16.1615 18.8622 16.1694 18.7377 16.2023C18.6133 16.2353 18.4966 16.2927 18.3946 16.3712C18.2925 16.4497 18.2071 16.5478 18.1434 16.6596C17.6023 17.5721 16.5764 18.1394 15.4651 18.1394C14.3247 18.1394 13.2891 17.5411 12.7616 16.5782ZM8.71212 13.303C8.9693 13.303 9.21595 13.2009 9.3978 13.019C9.57965 12.8372 9.68182 12.5905 9.68182 12.3333C9.68182 11.5314 10.3344 10.8788 11.1364 10.8788C11.9383 10.8788 12.5909 11.5314 12.5909 12.3333C12.5909 12.5905 12.6931 12.8372 12.8749 13.019C13.0568 13.2009 13.3034 13.303 13.5606 13.303C13.8178 13.303 14.0644 13.2009 14.2463 13.019C14.4281 12.8372 14.5303 12.5905 14.5303 12.3333C14.5303 10.4618 13.0079 8.93939 11.1364 8.93939C9.26485 8.93939 7.74242 10.4618 7.74242 12.3333C7.74242 12.5905 7.84459 12.8372 8.02644 13.019C8.2083 13.2009 8.45494 13.303 8.71212 13.303ZM17.4394 13.303C17.6966 13.303 17.9432 13.2009 18.1251 13.019C18.3069 12.8372 18.4091 12.5905 18.4091 12.3333C18.4091 11.5314 19.0617 10.8788 19.8636 10.8788C20.6656 10.8788 21.3182 11.5314 21.3182 12.3333C21.3182 12.5905 21.4203 12.8372 21.6022 13.019C21.7841 13.2009 22.0307 13.303 22.2879 13.303C22.5451 13.303 22.7917 13.2009 22.9736 13.019C23.1554 12.8372 23.2576 12.5905 23.2576 12.3333C23.2576 10.4618 21.7352 8.93939 19.8636 8.93939C17.9921 8.93939 16.4697 10.4618 16.4697 12.3333C16.4697 12.5905 16.5719 12.8372 16.7537 13.019C16.9356 13.2009 17.1822 13.303 17.4394 13.303Z" fill="#3B6EAA"/>
<path d="M15.5 29.5455C23.5204 29.5455 30.0455 23.0204 30.0455 15C30.0455 6.97964 23.5204 0.454545 15.5 0.454545C7.47964 0.454545 0.954545 6.97964 0.954545 15C0.954545 23.0204 7.47964 29.5455 15.5 29.5455ZM15.5 2.39394C22.4508 2.39394 28.1061 8.04921 28.1061 15C28.1061 21.9508 22.4508 27.6061 15.5 27.6061C8.54921 27.6061 2.89394 21.9508 2.89394 15C2.89394 8.04921 8.54921 2.39394 15.5 2.39394Z" fill="#3B6EAA"/>
<path d="M29.5909 15C29.5909 7.23067 23.2693 0.909091 15.5 0.909091C7.73067 0.909091 1.40909 7.23067 1.40909 15C1.40909 22.7693 7.73067 29.0909 15.5 29.0909C23.2693 29.0909 29.5909 22.7693 29.5909 15ZM27.6511 15C27.6511 8.30025 22.1997 2.8489 15.5 2.8489C8.80025 2.8489 3.3489 8.30025 3.3489 15C3.3489 21.6997 8.80025 27.1511 15.5 27.1511C22.1997 27.1511 27.6511 21.6997 27.6511 15ZM11.7562 15.6286C11.9422 15.6082 12.1306 15.625 12.3102 15.6774C12.4897 15.7298 12.6571 15.8169 12.8029 15.9339C12.9486 16.0509 13.0699 16.1954 13.1598 16.3592C13.6038 17.1697 14.4832 17.6847 15.4654 17.6847C16.4252 17.6846 17.2977 17.1942 17.7523 16.4276C17.8454 16.2662 17.9695 16.1248 18.1172 16.0112C18.2671 15.8959 18.4386 15.811 18.6214 15.7626C18.8042 15.7142 18.9953 15.7028 19.1825 15.7289C19.3697 15.755 19.55 15.818 19.7125 15.9144C19.8752 16.0109 20.0171 16.139 20.1298 16.2908C20.2425 16.4427 20.3234 16.6159 20.3686 16.7995C20.4138 16.9831 20.4219 17.1739 20.3926 17.3606C20.3637 17.5447 20.2986 17.7209 20.2017 17.88C19.2288 19.5221 17.4121 20.5335 15.4654 20.5336C13.4562 20.5336 11.6125 19.463 10.6625 17.7299C10.5726 17.5661 10.5159 17.3857 10.4956 17.1999C10.4752 17.014 10.4912 16.8255 10.5435 16.646C10.5958 16.4665 10.6831 16.299 10.8001 16.1532C10.9172 16.0074 11.0622 15.8854 11.2262 15.7955C11.3902 15.7055 11.5703 15.6489 11.7562 15.6286ZM11.8548 16.5323C11.7876 16.5397 11.7222 16.5602 11.663 16.5927C11.6038 16.6252 11.5517 16.6696 11.5094 16.7223C11.4671 16.7751 11.4351 16.8358 11.4162 16.9007C11.3974 16.9655 11.3911 17.0334 11.3984 17.1005C11.4058 17.1678 11.4271 17.2329 11.4597 17.2923C12.2455 18.726 13.7783 19.6245 15.4654 19.6245C17.1024 19.6244 18.617 18.7734 19.4205 17.4174L19.424 17.4103C19.4599 17.3521 19.4844 17.287 19.495 17.2195C19.5056 17.1519 19.5025 17.0825 19.4862 17.0162C19.4698 16.9499 19.4398 16.8872 19.3991 16.8324C19.3584 16.7776 19.3069 16.7314 19.2482 16.6966C19.1895 16.6618 19.1241 16.6385 19.0565 16.6291C18.9889 16.6197 18.92 16.6241 18.854 16.6415C18.7881 16.659 18.7262 16.6896 18.6721 16.7312C18.6178 16.7729 18.5719 16.8253 18.538 16.8848L18.5344 16.8919C17.907 17.9498 16.7278 18.5937 15.4654 18.5938C14.1669 18.5938 12.9736 17.9121 12.3626 16.7969C12.33 16.7376 12.2866 16.6847 12.2338 16.6424C12.1811 16.6001 12.1203 16.569 12.0554 16.5501C11.9904 16.5311 11.922 16.525 11.8548 16.5323ZM14.076 12.3331C14.0759 10.7128 12.7569 9.39374 11.1365 9.39364C9.51614 9.39364 8.19722 10.7127 8.19709 12.3331C8.19709 12.4697 8.2514 12.6014 8.34801 12.698C8.44457 12.7944 8.57555 12.8489 8.712 12.8489C8.84845 12.8489 8.97942 12.7943 9.07599 12.698C9.1726 12.6014 9.22692 12.4697 9.22692 12.3331C9.22705 11.2802 10.0836 10.4244 11.1365 10.4244C12.1894 10.4245 13.0451 11.2803 13.0453 12.3331C13.0453 12.4697 13.0996 12.6014 13.1962 12.698C13.2927 12.7944 13.4238 12.8488 13.5602 12.8489C13.6968 12.8489 13.8285 12.7945 13.9251 12.698C14.0217 12.6014 14.076 12.4697 14.076 12.3331ZM22.8029 12.3331C22.8028 10.7127 21.4839 9.39364 19.8635 9.39364C18.2431 9.39374 16.9241 10.7128 16.924 12.3331C16.924 12.4697 16.9783 12.6014 17.0749 12.698C17.1715 12.7945 17.3032 12.8489 17.4398 12.8489C17.5762 12.8488 17.7073 12.7944 17.8038 12.698C17.9004 12.6014 17.9547 12.4697 17.9547 12.3331C17.9549 11.2803 18.8106 10.4245 19.8635 10.4244C20.9164 10.4244 21.773 11.2802 21.7731 12.3331C21.7731 12.4697 21.8274 12.6014 21.924 12.698C22.0206 12.7943 22.1516 12.8489 22.288 12.8489C22.4245 12.8489 22.5554 12.7944 22.652 12.698C22.7486 12.6014 22.8029 12.4697 22.8029 12.3331ZM28.5602 15C28.5602 22.2018 22.7018 28.0602 15.5 28.0602C8.29817 28.0602 2.43981 22.2018 2.43981 15C2.43981 7.79817 8.29817 1.93981 15.5 1.93981C22.7018 1.93981 28.5602 7.79817 28.5602 15ZM30.5 15C30.5 23.2714 23.7714 30 15.5 30C7.2286 30 0.5 23.2714 0.5 15C0.5 6.7286 7.2286 0 15.5 0C23.7714 0 30.5 6.7286 30.5 15ZM14.9851 12.3331C14.9851 12.7108 14.8349 13.0736 14.5678 13.3407C14.3007 13.6078 13.9379 13.758 13.5602 13.758C13.1827 13.7579 12.8204 13.6077 12.5534 13.3407C12.2863 13.0736 12.1362 12.7108 12.1362 12.3331C12.1361 11.7824 11.6873 11.3335 11.1365 11.3335C10.5857 11.3335 10.1361 11.7823 10.136 12.3331C10.136 12.7108 9.9867 13.0736 9.71964 13.3407C9.45254 13.6078 9.08974 13.758 8.712 13.758C8.33444 13.758 7.9723 13.6076 7.70526 13.3407C7.43816 13.0736 7.288 12.7108 7.288 12.3331C7.28813 10.2107 9.01407 8.48455 11.1365 8.48455C13.2589 8.48465 14.985 10.2107 14.9851 12.3331ZM23.712 12.3331C23.712 12.7108 23.5618 13.0736 23.2947 13.3407C23.0277 13.6076 22.6656 13.758 22.288 13.758C21.9103 13.758 21.5475 13.6078 21.2804 13.3407C21.0133 13.0736 20.864 12.7108 20.864 12.3331C20.8639 11.7823 20.4143 11.3335 19.8635 11.3335C19.3127 11.3335 18.8639 11.7824 18.8638 12.3331C18.8638 12.7108 18.7137 13.0736 18.4466 13.3407C18.1796 13.6077 17.8173 13.7579 17.4398 13.758C17.0621 13.758 16.6993 13.6078 16.4322 13.3407C16.1651 13.0736 16.0149 12.7108 16.0149 12.3331C16.015 10.2107 17.7411 8.48465 19.8635 8.48455C21.9859 8.48455 23.7119 10.2107 23.712 12.3331Z" fill="#3B6EAA"/>
</svg>
