<svg width="30" height="30" viewBox="0 0 30 30" fill="none" xmlns="http://www.w3.org/2000/svg">
<path d="M30 15C30 23.2714 23.2714 30 15 30C6.7286 30 0 23.2714 0 15C0 6.7286 6.7286 0 15 0C23.2714 0 30 6.7286 30 15Z" fill="#3B6EAA"/>
<path d="M12.0192 17.6388C11.9579 17.5271 11.8753 17.4286 11.7759 17.3489C11.6766 17.2691 11.5625 17.2097 11.4403 17.1741C11.318 17.1384 11.1899 17.1272 11.0633 17.141C10.9366 17.1549 10.814 17.1935 10.7023 17.2548C10.5906 17.316 10.4921 17.3987 10.4124 17.498C10.3326 17.5973 10.2732 17.7114 10.2376 17.8337C10.2019 17.956 10.1907 18.0841 10.2045 18.2107C10.2184 18.3373 10.2571 18.46 10.3183 18.5716C11.1862 20.1552 12.8744 21.1394 14.7227 21.1394C16.5147 21.1394 18.1806 20.2085 19.0688 18.7093C19.1364 18.5997 19.1815 18.4778 19.2015 18.3506C19.2214 18.2234 19.2158 18.0935 19.185 17.9685C19.1543 17.8434 19.0989 17.7258 19.0221 17.6224C18.9454 17.519 18.8488 17.432 18.7381 17.3663C18.6273 17.3006 18.5046 17.2576 18.3771 17.2399C18.2496 17.2222 18.1198 17.23 17.9953 17.2629C17.8709 17.2959 17.7542 17.3533 17.6521 17.4318C17.5501 17.5103 17.4647 17.6084 17.401 17.7202C16.8599 18.6327 15.8339 19.2 14.7227 19.2C13.5823 19.2 12.5467 18.6017 12.0192 17.6388ZM7.9697 14.3636C8.22688 14.3636 8.47352 14.2615 8.65538 14.0796C8.83723 13.8978 8.93939 13.6511 8.93939 13.3939C8.93939 12.592 9.592 11.9394 10.3939 11.9394C11.1959 11.9394 11.8485 12.592 11.8485 13.3939C11.8485 13.6511 11.9506 13.8978 12.1325 14.0796C12.3144 14.2615 12.561 14.3636 12.8182 14.3636C13.0754 14.3636 13.322 14.2615 13.5039 14.0796C13.6857 13.8978 13.7879 13.6511 13.7879 13.3939C13.7879 11.5224 12.2655 10 10.3939 10C8.52242 10 7 11.5224 7 13.3939C7 13.6511 7.10217 13.8978 7.28402 14.0796C7.46587 14.2615 7.71252 14.3636 7.9697 14.3636ZM16.697 14.3636C16.9541 14.3636 17.2008 14.2615 17.3827 14.0796C17.5645 13.8978 17.6667 13.6511 17.6667 13.3939C17.6667 12.592 18.3193 11.9394 19.1212 11.9394C19.9232 11.9394 20.5758 12.592 20.5758 13.3939C20.5758 13.6511 20.6779 13.8978 20.8598 14.0796C21.0416 14.2615 21.2883 14.3636 21.5455 14.3636C21.8026 14.3636 22.0493 14.2615 22.2311 14.0796C22.413 13.8978 22.5152 13.6511 22.5152 13.3939C22.5152 11.5224 20.9927 10 19.1212 10C17.2497 10 15.7273 11.5224 15.7273 13.3939C15.7273 13.6511 15.8294 13.8978 16.0113 14.0796C16.1931 14.2615 16.4398 14.3636 16.697 14.3636Z" fill="#F2EFEA"/>
</svg>
