<svg width="30" height="30" viewBox="0 0 30 30" fill="none" xmlns="http://www.w3.org/2000/svg">
<path d="M12.4219 18.9102C14.2267 18.7914 16.0383 18.8114 17.8408 18.9697H17.8399C18.9666 19.0499 20.0865 19.2075 21.1914 19.4424H21.1904C21.974 19.6036 22.9121 19.8584 23.7695 20.2881C24.5674 20.688 25.423 21.3039 25.9463 22.2598L26.0469 22.4561V22.457L26.1514 22.6914C26.6359 23.8776 26.6005 25.2176 26.0469 26.3818V26.3828C25.5378 27.452 24.62 28.125 23.7666 28.5508C22.9165 28.9748 21.9874 29.2239 21.2041 29.3799L21.2051 29.3809C20.0958 29.6277 18.9696 29.7906 17.8359 29.8691L17.8369 29.8701C16.1754 30.011 14.506 30.0361 12.8408 29.9482C12.5183 29.9484 12.0771 29.9475 11.6016 29.8652C10.4889 29.7861 9.38349 29.625 8.29493 29.3809V29.3799C7.50548 29.2237 6.57817 28.9741 5.7295 28.5508C4.92761 28.1507 4.0763 27.5364 3.54884 26.5879L3.44825 26.3936C3.4462 26.3893 3.44343 26.3851 3.44142 26.3809C3.14967 25.7654 2.99911 25.0922 3.00001 24.4111C2.99863 23.7321 3.15141 23.061 3.4463 22.4492L3.45509 22.4297C3.96573 21.4085 4.87297 20.7456 5.70899 20.3174C6.55877 19.8821 7.49254 19.6082 8.29688 19.4424L8.71583 19.3574C9.68444 19.1685 10.6638 19.0391 11.6484 18.9697L12.4219 18.9102ZM17.5791 21.958C15.9291 21.8131 14.2703 21.7956 12.6182 21.9043L11.9111 21.958C11.9021 21.9588 11.8929 21.9593 11.8838 21.96C10.8887 22.0289 9.89938 22.1688 8.92384 22.377L8.91212 22.3789C8.27069 22.5105 7.61185 22.7129 7.07618 22.9873C6.53209 23.2661 6.25668 23.5454 6.14454 23.7607C6.04874 23.9627 5.99922 24.1836 6.00001 24.4072V24.415C5.9997 24.6471 6.05034 24.8767 6.14845 25.0869C6.26613 25.3259 6.53722 25.6012 7.06837 25.8662C7.46314 26.0632 7.92913 26.2175 8.417 26.3369L8.91017 26.4443L8.95118 26.4531C9.67436 26.6153 10.406 26.7362 11.1426 26.8145L11.8809 26.8789L12.0742 26.9043L12.2305 26.9287C12.2852 26.9349 12.3433 26.9393 12.4072 26.9424L12.8818 26.9492L12.9619 26.9512L13.54 26.9775C14.8882 27.0268 16.2384 26.9948 17.583 26.8809L17.6074 26.8789L18.3496 26.8135C19.0903 26.7348 19.8263 26.615 20.5537 26.4531L20.5899 26.4453L21.0811 26.3369C21.5667 26.2174 22.0329 26.0632 22.4277 25.8662C22.964 25.5987 23.228 25.3235 23.3379 25.0928C23.5403 24.6665 23.5403 24.1723 23.3379 23.7461L23.29 23.6572C23.1584 23.4462 22.896 23.2068 22.4248 22.9707C21.8961 22.7058 21.2411 22.5149 20.5781 22.3789L20.5674 22.377C19.8349 22.2213 19.095 22.1037 18.3506 22.0254L17.6055 21.96C17.5968 21.9594 17.5878 21.9588 17.5791 21.958ZM19.7139 8.96289C19.7139 6.22219 17.4917 4.00008 14.751 4C12.0102 4 9.7881 6.22215 9.7881 8.96289C9.78828 11.7035 12.0104 13.9248 14.751 13.9248C17.4916 13.9247 19.7137 11.7034 19.7139 8.96289ZM22.7139 8.96289C22.7137 13.3603 19.1484 16.9247 14.751 16.9248C10.3535 16.9248 6.78828 13.3603 6.7881 8.96289C6.7881 4.56529 10.3534 1 14.751 1C19.1485 1.00008 22.7139 4.56534 22.7139 8.96289Z" fill="#3B6EAA"/>
</svg>
