<svg width="32" height="32" viewBox="0 0 32 32" fill="none" xmlns="http://www.w3.org/2000/svg">
<path d="M12.0099 2.53014C13.5694 -0.843405 18.4309 -0.843356 19.9904 2.53014L20.1359 2.87877L22.5617 9.43737L29.1212 11.8641L29.4699 12.0096C32.8434 13.5691 32.8434 18.4307 29.4699 19.9901L29.1212 20.1356L22.5617 22.5614L20.1359 29.121C18.7597 32.8397 13.6214 32.9556 12.0099 29.4696L11.8644 29.121L9.43765 22.5614L2.87906 20.1356C-0.959717 18.715 -0.959656 13.2847 2.87906 11.8641L9.43765 9.43737L11.8644 2.87877L12.0099 2.53014ZM17.3224 3.91979C16.8683 2.69298 15.132 2.69297 14.6779 3.91979L11.7726 11.7723L3.92007 14.6776C2.69326 15.1317 2.69325 16.868 3.92007 17.3221L11.7726 20.2274L14.6779 28.0799C15.132 29.3068 16.8683 29.3068 17.3224 28.0799L20.2277 20.2274L28.0802 17.3221C29.307 16.868 29.307 15.1317 28.0802 14.6776L20.2277 11.7723L17.3224 3.91979Z" fill="#F9F9F9"/>
</svg>
