<svg width="31" height="30" viewBox="0 0 31 30" fill="none" xmlns="http://www.w3.org/2000/svg">
<path d="M22.75 1H9C7.3424 1 5.75269 1.65848 4.58058 2.83058C3.40848 4.00269 2.75 5.5924 2.75 7.25V7.6C2.37216 7.81814 2.05798 8.13136 1.83869 8.50854C1.6194 8.88572 1.50263 9.31372 1.5 9.75V11C1.50263 11.4363 1.6194 11.8643 1.83869 12.2415C2.05798 12.6186 2.37216 12.9319 2.75 13.15V16.35C2.37216 16.5681 2.05798 16.8814 1.83869 17.2585C1.6194 17.6357 1.50263 18.0637 1.5 18.5V19.75C1.50263 20.1863 1.6194 20.6143 1.83869 20.9915C2.05798 21.3686 2.37216 21.6819 2.75 21.9V22.25C2.75 23.0708 2.91166 23.8835 3.22575 24.6418C3.53984 25.4001 4.00022 26.0891 4.58058 26.6694C5.75269 27.8415 7.3424 28.5 9 28.5H22.75C23.5708 28.5 24.3835 28.3383 25.1418 28.0242C25.9001 27.7102 26.5891 27.2498 27.1694 26.6694C27.7498 26.0891 28.2102 25.4001 28.5242 24.6418C28.8383 23.8835 29 23.0708 29 22.25V7.25C29 6.42924 28.8383 5.61651 28.5242 4.85823C28.2102 4.09994 27.7498 3.41095 27.1694 2.83058C26.5891 2.25022 25.9001 1.78984 25.1418 1.47575C24.3835 1.16166 23.5708 1 22.75 1ZM26.5 22.25C26.5 23.2446 26.1049 24.1984 25.4017 24.9017C24.6984 25.6049 23.7446 26 22.75 26H9C8.00544 26 7.05161 25.6049 6.34835 24.9017C5.64509 24.1984 5.25 23.2446 5.25 22.25V7.25C5.25 6.25544 5.64509 5.30161 6.34835 4.59835C7.05161 3.89509 8.00544 3.5 9 3.5H22.75C23.7446 3.5 24.6984 3.89509 25.4017 4.59835C26.1049 5.30161 26.5 6.25544 26.5 7.25V22.25ZM23.375 13.5H22C21.755 12.2989 21.1623 11.1963 20.2955 10.3295C19.4287 9.46272 18.3261 8.86996 17.125 8.625V7.25C17.125 6.91848 16.9933 6.60054 16.7589 6.36612C16.5245 6.1317 16.2065 6 15.875 6C15.5435 6 15.2255 6.1317 14.9911 6.36612C14.7567 6.60054 14.625 6.91848 14.625 7.25V8.625C13.4239 8.86996 12.3213 9.46272 11.4545 10.3295C10.5877 11.1963 9.99496 12.2989 9.75 13.5H8.375C8.04348 13.5 7.72554 13.6317 7.49112 13.8661C7.2567 14.1005 7.125 14.4185 7.125 14.75C7.125 15.0815 7.2567 15.3995 7.49112 15.6339C7.72554 15.8683 8.04348 16 8.375 16H9.75C9.99496 17.2011 10.5877 18.3037 11.4545 19.1705C12.3213 20.0373 13.4239 20.63 14.625 20.875V22.25C14.625 22.5815 14.7567 22.8995 14.9911 23.1339C15.2255 23.3683 15.5435 23.5 15.875 23.5C16.2065 23.5 16.5245 23.3683 16.7589 23.1339C16.9933 22.8995 17.125 22.5815 17.125 22.25V20.875C18.3261 20.63 19.4287 20.0373 20.2955 19.1705C21.1623 18.3037 21.755 17.2011 22 16H23.375C23.7065 16 24.0245 15.8683 24.2589 15.6339C24.4933 15.3995 24.625 15.0815 24.625 14.75C24.625 14.4185 24.4933 14.1005 24.2589 13.8661C24.0245 13.6317 23.7065 13.5 23.375 13.5ZM15.875 18.5C15.1333 18.5 14.4083 18.2801 13.7916 17.868C13.1749 17.456 12.6943 16.8703 12.4105 16.1851C12.1266 15.4998 12.0524 14.7458 12.1971 14.0184C12.3417 13.291 12.6989 12.6228 13.2233 12.0983C13.7478 11.5739 14.416 11.2167 15.1434 11.0721C15.8708 10.9274 16.6248 11.0016 17.3101 11.2855C17.9953 11.5693 18.581 12.0499 18.993 12.6666C19.4051 13.2833 19.625 14.0083 19.625 14.75C19.625 15.7446 19.2299 16.6984 18.5267 17.4017C17.8234 18.1049 16.8696 18.5 15.875 18.5ZM15.875 12.875C15.5042 12.875 15.1416 12.985 14.8333 13.191C14.525 13.397 14.2846 13.6899 14.1427 14.0325C14.0008 14.3751 13.9637 14.7521 14.036 15.1158C14.1084 15.4795 14.287 15.8136 14.5492 16.0758C14.8114 16.338 15.1455 16.5166 15.5092 16.589C15.8729 16.6613 16.2499 16.6242 16.5925 16.4823C16.9351 16.3404 17.228 16.1 17.434 15.7917C17.64 15.4834 17.75 15.1208 17.75 14.75C17.75 14.2527 17.5525 13.7758 17.2008 13.4242C16.8492 13.0725 16.3723 12.875 15.875 12.875Z" fill="#3B6EAA"/>
</svg>
