<svg width="30" height="30" viewBox="0 0 30 30" fill="none" xmlns="http://www.w3.org/2000/svg">
<path d="M22.25 1H8.5C6.8424 1 5.25269 1.65848 4.08058 2.83058C2.90848 4.00269 2.25 5.5924 2.25 7.25V7.6C1.87216 7.81814 1.55798 8.13136 1.33869 8.50854C1.1194 8.88572 1.00263 9.31372 1 9.75V11C1.00263 11.4363 1.1194 11.8643 1.33869 12.2415C1.55798 12.6186 1.87216 12.9319 2.25 13.15V16.35C1.87216 16.5681 1.55798 16.8814 1.33869 17.2585C1.1194 17.6357 1.00263 18.0637 1 18.5V19.75C1.00263 20.1863 1.1194 20.6143 1.33869 20.9915C1.55798 21.3686 1.87216 21.6819 2.25 21.9V22.25C2.25 23.0708 2.41166 23.8835 2.72575 24.6418C3.03984 25.4001 3.50022 26.0891 4.08058 26.6694C5.25269 27.8415 6.8424 28.5 8.5 28.5H22.25C23.0708 28.5 23.8835 28.3383 24.6418 28.0242C25.4001 27.7102 26.0891 27.2498 26.6694 26.6694C27.2498 26.0891 27.7102 25.4001 28.0242 24.6418C28.3383 23.8835 28.5 23.0708 28.5 22.25V7.25C28.5 6.42924 28.3383 5.61651 28.0242 4.85823C27.7102 4.09994 27.2498 3.41095 26.6694 2.83058C26.0891 2.25022 25.4001 1.78984 24.6418 1.47575C23.8835 1.16166 23.0708 1 22.25 1Z" fill="#3B6EAA"/>
<path fill-rule="evenodd" clip-rule="evenodd" d="M22.875 13.5H21.5C21.255 12.2989 20.6623 11.1963 19.7955 10.3295C18.9287 9.46272 17.8261 8.86996 16.625 8.625V7.25C16.625 6.91848 16.4933 6.60054 16.2589 6.36612C16.0245 6.1317 15.7065 6 15.375 6C15.0435 6 14.7255 6.1317 14.4911 6.36612C14.2567 6.60054 14.125 6.91848 14.125 7.25V8.625C12.9239 8.86996 11.8213 9.46272 10.9545 10.3295C10.0877 11.1963 9.49496 12.2989 9.25 13.5H7.875C7.54348 13.5 7.22554 13.6317 6.99112 13.8661C6.7567 14.1005 6.625 14.4185 6.625 14.75C6.625 15.0815 6.7567 15.3995 6.99112 15.6339C7.22554 15.8683 7.54348 16 7.875 16H9.25C9.49496 17.2011 10.0877 18.3037 10.9545 19.1705C11.8213 20.0373 12.9239 20.63 14.125 20.875V22.25C14.125 22.5815 14.2567 22.8995 14.4911 23.1339C14.7255 23.3683 15.0435 23.5 15.375 23.5C15.7065 23.5 16.0245 23.3683 16.2589 23.1339C16.4933 22.8995 16.625 22.5815 16.625 22.25V20.875C17.8261 20.63 18.9287 20.0373 19.7955 19.1705C20.6623 18.3037 21.255 17.2011 21.5 16H22.875C23.2065 16 23.5245 15.8683 23.7589 15.6339C23.9933 15.3995 24.125 15.0815 24.125 14.75C24.125 14.4185 23.9933 14.1005 23.7589 13.8661C23.5245 13.6317 23.2065 13.5 22.875 13.5ZM13.2916 17.868C13.9083 18.2801 14.6333 18.5 15.375 18.5C16.3696 18.5 17.3234 18.1049 18.0267 17.4017C18.7299 16.6984 19.125 15.7446 19.125 14.75C19.125 14.0083 18.9051 13.2833 18.493 12.6666C18.081 12.0499 17.4953 11.5693 16.8101 11.2855C16.1248 11.0016 15.3708 10.9274 14.6434 11.0721C13.916 11.2167 13.2478 11.5739 12.7233 12.0983C12.1989 12.6228 11.8417 13.291 11.6971 14.0184C11.5524 14.7458 11.6266 15.4998 11.9105 16.1851C12.1943 16.8703 12.6749 17.456 13.2916 17.868ZM15.375 12.875C15.0042 12.875 14.6416 12.985 14.3333 13.191C14.025 13.397 13.7846 13.6899 13.6427 14.0325C13.5008 14.3751 13.4637 14.7521 13.536 15.1158C13.6084 15.4795 13.787 15.8136 14.0492 16.0758C14.3114 16.338 14.6455 16.5166 15.0092 16.589C15.3729 16.6613 15.7499 16.6242 16.0925 16.4823C16.4351 16.3404 16.728 16.1 16.934 15.7917C17.14 15.4834 17.25 15.1208 17.25 14.75C17.25 14.2527 17.0525 13.7758 16.7008 13.4242C16.3492 13.0725 15.8723 12.875 15.375 12.875Z" fill="#F2EFEA"/>
</svg>
