<svg width="22" height="28" viewBox="0 0 22 28" fill="none" xmlns="http://www.w3.org/2000/svg">
<g clip-path="url(#clip0_693_18294)">
<path d="M17.9289 14.6945C17.918 12.6875 18.8258 11.1727 20.6633 10.057C19.6352 8.58594 18.082 7.77656 16.0313 7.61797C14.0898 7.46484 11.968 8.75 11.1914 8.75C10.3711 8.75 8.48984 7.67266 7.01328 7.67266C3.96172 7.72188 0.71875 10.1062 0.71875 14.957C0.71875 16.3898 0.98125 17.8701 1.50625 19.3977C2.20625 21.4047 4.73281 26.3266 7.36875 26.2445C8.74688 26.2117 9.72031 25.2656 11.5141 25.2656C13.2531 25.2656 14.1555 26.2445 15.6922 26.2445C18.35 26.2062 20.6359 21.7328 21.3031 19.7203C17.7375 18.0414 17.9289 14.7984 17.9289 14.6945ZM14.8336 5.71484C16.3266 3.94297 16.1898 2.32969 16.1461 1.75C14.8281 1.82656 13.3023 2.64688 12.4328 3.65859C11.4758 4.74141 10.9125 6.08125 11.0328 7.59063C12.4602 7.7 13.7617 6.96719 14.8336 5.71484Z" fill="#C9DFF4"/>
</g>
<defs>
<clipPath id="clip0_693_18294">
<rect width="21" height="28" fill="white" transform="translate(0.5)"/>
</clipPath>
</defs>
</svg>
