<svg width="18" height="18" viewBox="0 0 18 18" fill="none" xmlns="http://www.w3.org/2000/svg">
<path fill-rule="evenodd" clip-rule="evenodd" d="M10.539 0.369118C10.9195 0.27555 11.3175 0.276581 11.6972 0.373025C12.0769 0.469518 12.4274 0.658796 12.7177 0.922829C13.008 1.18692 13.2302 1.51857 13.3632 1.88865L13.4345 2.08689H13.8066C14.4416 2.08695 15.0516 2.34016 15.5009 2.79099C15.9501 3.24189 16.2021 3.85417 16.2021 4.49217V4.50486L16.2041 4.51756C16.2161 4.65617 16.2161 4.79593 16.2041 4.93455L16.1875 5.12498L16.3525 5.22068C16.8549 5.51187 17.2722 5.93148 17.5615 6.4365C17.8507 6.94161 18.0023 7.51496 18 8.09763C17.9984 8.59143 17.8865 9.07869 17.6728 9.52342C17.459 9.9683 17.1477 10.3603 16.7636 10.6689L16.5703 10.8242L16.6875 11.0439C16.9557 11.5461 17.0906 12.1099 17.0781 12.6797C17.0655 13.2493 16.9061 13.8061 16.6162 14.2959C16.3261 14.7857 15.9143 15.1923 15.4218 15.4756C14.9294 15.7587 14.372 15.9094 13.8046 15.9131H13.4345L13.3632 16.1113C13.2302 16.4814 13.0081 16.813 12.7177 17.0771C12.4274 17.3412 12.0769 17.5304 11.6972 17.6269C11.3175 17.7234 10.9195 17.7244 10.539 17.6308C10.1587 17.5373 9.8069 17.3515 9.5146 17.0898L9.3144 16.9101L9.11421 17.0898C8.82186 17.3517 8.46925 17.5372 8.08882 17.6308C7.70842 17.7244 7.31031 17.7233 6.93061 17.6269C6.55097 17.5305 6.20046 17.3411 5.91011 17.0771C5.61978 16.8131 5.39862 16.4814 5.26558 16.1113L5.19429 15.9131H4.81929C4.24834 15.9166 3.68557 15.7705 3.18745 15.4902C2.68955 15.2099 2.27236 14.8043 1.97749 14.3135C1.68261 13.8224 1.52017 13.2627 1.50581 12.6894C1.49148 12.1163 1.62555 11.5491 1.89546 11.0439L2.01265 10.8252L1.82026 10.6699C1.40317 10.3308 1.07501 9.89406 0.864208 9.39842C0.653407 8.90265 0.566595 8.36238 0.611279 7.82517C0.65597 7.28812 0.830439 6.77007 1.12007 6.31638C1.40981 5.86265 1.80605 5.48671 2.27339 5.22166L2.44136 5.12693L2.42476 4.93455C2.41275 4.79589 2.41274 4.65621 2.42476 4.51756L2.42573 4.50486V4.49217C2.42573 3.85403 2.67848 3.24191 3.12788 2.79099C3.57721 2.34033 4.18635 2.08689 4.82124 2.08689H5.19429L5.26558 1.88865C5.39862 1.51857 5.61977 1.18691 5.91011 0.922829C6.20047 0.658825 6.55097 0.4695 6.93061 0.373025C7.31032 0.276629 7.70842 0.275554 8.08882 0.369118C8.46925 0.462757 8.82186 0.648243 9.11421 0.910134L9.3144 1.08982L9.5146 0.910134C9.8069 0.648446 10.1587 0.46268 10.539 0.369118ZM7.51655 1.48728C7.19849 1.48736 6.89352 1.61449 6.6689 1.83982C6.44445 2.06517 6.31837 2.3703 6.31831 2.68845V2.69138C6.32005 2.89822 6.37265 3.10161 6.47163 3.28318L6.47261 3.28416C6.54744 3.42047 6.5666 3.58098 6.52632 3.73142C6.48646 3.88029 6.39104 4.0076 6.26069 4.08787C6.19248 4.12752 6.11708 4.15372 6.03901 4.16404C5.96104 4.17432 5.88157 4.16893 5.80561 4.14842C5.72967 4.12784 5.65802 4.09222 5.59565 4.04392C5.53549 3.99725 5.48491 3.93883 5.44624 3.87302C5.38805 3.75101 5.33708 3.62553 5.29487 3.49705L5.23628 3.31931L5.05171 3.29295L4.91499 3.28416C4.88373 3.28417 4.85239 3.287 4.82124 3.29002L4.7021 3.29588C4.42777 3.32331 4.17006 3.44555 3.97358 3.64256C3.75438 3.8625 3.62994 4.15876 3.62397 4.46873C3.60653 4.69527 3.65738 4.92207 3.77046 5.11912L3.77143 5.12205C3.84693 5.25012 3.94787 5.36111 4.06636 5.4492L4.19038 5.53025C4.32617 5.61023 4.42644 5.74032 4.46772 5.89353C4.50943 6.04857 4.4878 6.21438 4.40815 6.35349C4.32851 6.49253 4.19662 6.594 4.04292 6.63572C3.89018 6.67702 3.72741 6.65559 3.58979 6.57713C3.46096 6.49604 3.33945 6.40312 3.22749 6.29978L3.06636 6.15134L2.87495 6.25974C2.5265 6.45858 2.24207 6.75367 2.05561 7.10935C1.86916 7.46511 1.78902 7.8672 1.82319 8.26756C1.85739 8.66789 2.00489 9.05031 2.24897 9.36912C2.49107 9.68523 2.81808 9.9254 3.19136 10.0625C3.42394 10.1552 3.6725 10.2014 3.9228 10.2002C4.08105 10.2003 4.23344 10.2653 4.34565 10.3779C4.45773 10.4906 4.52143 10.644 4.52143 10.8037C4.52131 10.9632 4.45762 11.1159 4.34565 11.2285C4.23344 11.3411 4.08105 11.4051 3.9228 11.4053C3.73607 11.4055 3.54802 11.3885 3.36421 11.3554L3.16792 11.3203L3.05952 11.4883C2.84544 11.8207 2.72862 12.2069 2.72358 12.6025V12.6064C2.72358 13.1639 2.94466 13.6992 3.33784 14.0937C3.73102 14.4881 4.26487 14.7099 4.82124 14.7099C5.31553 14.7103 5.79365 14.5346 6.17183 14.2158L6.1728 14.2168C6.23332 14.1663 6.30288 14.1278 6.37788 14.1045C6.45292 14.0811 6.53211 14.0728 6.6103 14.0801C6.68834 14.0873 6.76448 14.1098 6.83393 14.1465C6.9035 14.1832 6.96619 14.2341 7.01655 14.2949C7.06667 14.3555 7.10453 14.4256 7.12788 14.501C7.15124 14.5766 7.15951 14.6565 7.15229 14.7353C7.14506 14.8141 7.12252 14.891 7.08589 14.9609C7.06762 14.9957 7.04593 15.0291 7.02143 15.0595L6.93843 15.1435C6.81446 15.2425 6.68345 15.3326 6.54683 15.4131L6.31831 15.5478L6.42378 15.792C6.5164 16.0048 6.66879 16.1864 6.86226 16.3144C7.05577 16.4424 7.28266 16.5111 7.5146 16.5127H7.51655C7.83467 16.5126 8.14054 16.3855 8.36518 16.1601C8.58943 15.9348 8.71571 15.6295 8.71577 15.3115V13.5068C8.71344 13.0768 8.5792 12.6572 8.33198 12.3056C8.0847 11.9541 7.73553 11.6865 7.33198 11.54L7.32515 11.5381L7.21772 11.4892C7.11564 11.4303 7.03174 11.3421 6.97847 11.2344C6.90749 11.0908 6.89623 10.9244 6.94722 10.7724C6.9982 10.6206 7.10753 10.4958 7.24995 10.4248C7.39178 10.3543 7.55593 10.3425 7.70601 10.3926C7.89925 10.466 8.08713 10.5542 8.26655 10.6572L8.71577 10.916V8.99802C8.71338 8.56798 8.57925 8.14839 8.33198 7.79685C8.08473 7.44548 7.73541 7.17869 7.33198 7.0322L7.32515 7.02927C7.17461 6.9783 7.04942 6.86985 6.97847 6.72654C6.90752 6.58303 6.89632 6.41654 6.94722 6.26463C6.99823 6.11271 7.10738 5.98699 7.24995 5.91599C7.39024 5.84623 7.55239 5.83461 7.70112 5.88279C7.89608 5.95664 8.08564 6.04557 8.26655 6.14939L8.71577 6.4072V2.68845C8.71571 2.37046 8.58942 2.06513 8.36518 1.83982C8.14054 1.61442 7.83468 1.48735 7.51655 1.48728ZM11.1113 1.48728C10.7931 1.48728 10.4883 1.61442 10.2636 1.83982C10.039 2.06519 9.9131 2.37019 9.91304 2.68845V6.4072L10.3623 6.14939C10.5428 6.04584 10.7312 5.95651 10.9257 5.88279C11.0747 5.83428 11.2373 5.84603 11.3779 5.91599C11.5204 5.987 11.6296 6.11272 11.6806 6.26463C11.7315 6.4165 11.7203 6.58307 11.6494 6.72654C11.5784 6.86987 11.4532 6.97828 11.3027 7.02927L11.2968 7.0322C10.8931 7.17864 10.5432 7.44531 10.2958 7.79685C10.0485 8.14841 9.91543 8.56793 9.91304 8.99802V10.916L10.3623 10.6572C10.5412 10.5545 10.7281 10.4659 10.9208 10.3926C11.0712 10.3422 11.2357 10.354 11.3779 10.4248C11.5203 10.4958 11.6296 10.6206 11.6806 10.7724C11.7316 10.9244 11.7203 11.0908 11.6494 11.2344C11.5784 11.3778 11.4534 11.4871 11.3027 11.5381L11.2968 11.54C10.8931 11.6865 10.5432 11.954 10.2958 12.3056C10.0486 12.6572 9.91537 13.0767 9.91304 13.5068V15.3115C9.9131 15.6298 10.039 15.9348 10.2636 16.1601C10.4883 16.3855 10.7931 16.5127 11.1113 16.5127H11.1132C11.3452 16.5111 11.5721 16.4425 11.7656 16.3144C11.959 16.1864 12.1114 16.0047 12.2041 15.792L12.3095 15.5478L12.081 15.4131C11.944 15.3324 11.8127 15.2419 11.6884 15.1426C11.5669 15.0405 11.4901 14.8942 11.4755 14.7353C11.461 14.5761 11.5098 14.4177 11.6113 14.2949C11.713 14.1721 11.8596 14.0947 12.0175 14.0801C12.1755 14.0655 12.3337 14.1148 12.456 14.2168C12.8342 14.5356 13.3123 14.7093 13.8066 14.709C14.3629 14.7089 14.8969 14.488 15.29 14.0937C15.6831 13.6992 15.9042 13.1639 15.9042 12.6064V12.6025C15.8992 12.207 15.7823 11.8207 15.5683 11.4883L15.4599 11.3203L15.2636 11.3554C15.0798 11.3885 14.8928 11.4055 14.706 11.4053C14.5478 11.4051 14.3944 11.341 14.2822 11.2285C14.1702 11.1159 14.1065 10.9632 14.1064 10.8037C14.1064 10.644 14.1701 10.4906 14.2822 10.3779C14.3944 10.2654 14.5468 10.2013 14.705 10.2011C14.934 10.2023 15.1608 10.1616 15.3759 10.084H15.416L15.4667 10.0654C15.8414 9.92431 16.1683 9.67837 16.4082 9.3574C16.6479 9.03633 16.7914 8.65278 16.8212 8.25291C16.851 7.85289 16.7658 7.45187 16.5761 7.09861C16.3864 6.7455 16.0995 6.45406 15.75 6.25877L15.5644 6.15427L15.4042 6.29685C15.2844 6.40348 15.1525 6.4958 15.0117 6.57224L15.0048 6.57615C14.8667 6.65583 14.7025 6.67731 14.5488 6.63572C14.395 6.59405 14.2632 6.49255 14.1835 6.35349C14.1039 6.21436 14.0832 6.04859 14.125 5.89353C14.1667 5.73869 14.2672 5.60604 14.4052 5.52634C14.5686 5.43557 14.7071 5.30581 14.8066 5.14744L14.8056 5.14646C14.9333 4.95263 15.004 4.72642 15.0058 4.49412V4.49217C15.0058 4.17397 14.8797 3.86795 14.6552 3.64256C14.4306 3.41715 14.1247 3.29008 13.8066 3.29002C13.7301 3.28263 13.6524 3.28229 13.5761 3.29295L13.3867 3.32029L13.331 3.50388C13.2904 3.63871 13.2397 3.77022 13.1816 3.89842C13.1428 3.96472 13.0927 4.02332 13.0322 4.07029C12.9698 4.11871 12.8983 4.15512 12.8222 4.17576C12.7463 4.19626 12.6667 4.20162 12.5888 4.19138C12.5108 4.18108 12.4353 4.15483 12.3671 4.11521C12.2994 4.07556 12.24 4.0227 12.1923 3.95994C12.1446 3.89697 12.1099 3.82467 12.0898 3.74802C12.0698 3.67155 12.0645 3.59199 12.0751 3.51365C12.0859 3.43509 12.1124 3.35933 12.1523 3.29099L12.1562 3.28318C12.2552 3.10162 12.3078 2.8982 12.3095 2.69138V2.68845C12.3095 2.37033 12.1833 2.06516 11.9589 1.83982C11.7343 1.61445 11.4294 1.48738 11.1113 1.48728Z" fill="#F2EFEA"/>
</svg>
