 <svg width="32" height="32" viewBox="0 0 32 32" fill="none" xmlns="http://www.w3.org/2000/svg">
<g clip-path="url(#clip0_693_18307)">
<path d="M22.6667 4.66662C22.6667 4.4898 22.5964 4.32024 22.4714 4.19521C22.3464 4.07019 22.1768 3.99995 22 3.99995H18.6667C16.9882 3.91634 15.3448 4.50047 14.0956 5.62472C12.8465 6.74897 12.093 8.32194 12 9.99995V13.5999H8.66667C8.48986 13.5999 8.32029 13.6702 8.19526 13.7952C8.07024 13.9202 8 14.0898 8 14.2666V17.7333C8 17.9101 8.07024 18.0797 8.19526 18.2047C8.32029 18.3297 8.48986 18.3999 8.66667 18.3999H12V27.3333C12 27.5101 12.0702 27.6797 12.1953 27.8047C12.3203 27.9297 12.4899 27.9999 12.6667 27.9999H16.6667C16.8435 27.9999 17.013 27.9297 17.1381 27.8047C17.2631 27.6797 17.3333 27.5101 17.3333 27.3333V18.3999H20.8267C20.9749 18.4021 21.1197 18.3547 21.238 18.2654C21.3563 18.176 21.4415 18.0498 21.48 17.9066L22.44 14.4399C22.4665 14.3414 22.4701 14.2382 22.4504 14.1381C22.4308 14.038 22.3884 13.9437 22.3266 13.8626C22.2647 13.7814 22.1851 13.7156 22.0938 13.67C22.0025 13.6245 21.902 13.6005 21.8 13.5999H17.3333V9.99995C17.3665 9.66992 17.5215 9.3641 17.768 9.14221C18.0146 8.92032 18.335 8.79829 18.6667 8.79995H22C22.1768 8.79995 22.3464 8.72971 22.4714 8.60469C22.5964 8.47966 22.6667 8.31009 22.6667 8.13328V4.66662Z" fill="#C9DFF4"/>
</g>
<defs>
<clipPath id="clip0_693_18307">
<rect width="32" height="32" fill="white"/>
</clipPath>
</defs>
</svg>
