<svg width="30" height="30" viewBox="0 0 30 30" fill="none" xmlns="http://www.w3.org/2000/svg">
<path d="M23.71 28H6.29C3.95 28 2 26.024 2 23.658V14.168C2 12.972 2.52 11.802 3.43 10.996L12.14 3.092C13.83 1.636 16.17 1.636 17.86 3.092L26.57 10.996C27.48 11.776 28 12.972 28 14.168V23.658C27.87 26.154 26.05 28 23.71 28ZM15 4.678C14.61 4.678 14.22 4.808 13.83 5.068L5.12 12.972C4.73 13.232 4.6 13.752 4.6 14.298V23.788C4.6 24.698 5.38 25.504 6.29 25.504H23.58C24.49 25.504 25.27 24.724 25.27 23.788V14.298C25.27 13.778 25.01 13.388 24.75 12.972L16.04 5.068C15.78 4.808 15.39 4.678 15 4.678Z" fill="#3B6EAA"/>
<path d="M15 4.678C14.61 4.678 14.22 4.808 13.83 5.068L5.12 12.972C4.73 13.232 4.6 13.752 4.6 14.298V23.788C4.6 24.698 5.38 25.504 6.29 25.504H23.58C24.49 25.504 25.27 24.724 25.27 23.788V14.298C25.27 13.778 25.01 13.388 24.75 12.972L16.04 5.068C15.78 4.808 15.39 4.678 15 4.678Z" fill="#3B6EAA"/>
</svg>
