<svg width="69" height="39" viewBox="0 0 69 39" fill="none" xmlns="http://www.w3.org/2000/svg">
<path d="M63.1841 29.0334C63.3381 28.7136 63.793 28.7136 63.947 29.0334L65.2918 31.8267C65.3334 31.9131 65.403 31.9829 65.4893 32.0245L68.279 33.3711C68.5984 33.5253 68.5984 33.9808 68.279 34.135L65.4893 35.4815C65.403 35.5232 65.3334 35.5929 65.2918 35.6793L63.947 38.4726C63.793 38.7925 63.3381 38.7925 63.1841 38.4726L61.8393 35.6793C61.7977 35.5929 61.7281 35.5232 61.6418 35.4815L58.8521 34.135C58.5327 33.9808 58.5327 33.5253 58.8521 33.3711L61.6418 32.0245C61.7281 31.9829 61.7977 31.9131 61.8393 31.8267L63.1841 29.0334Z" fill="#F2EFEA"/>
<path d="M8.18959 30.5661L2.5508 16.0997C1.61748 13.6887 1.11194 12.6776 0.178619 11.8609V11.7831H5.70075V11.8609C5.07854 12.5998 4.80632 13.922 5.58408 15.9831L9.51179 26.3273L13.1673 16.683C14.0617 14.2331 13.6728 12.6387 12.7784 11.8609V11.7831H16.7839V11.8609C15.5006 13.0276 14.9561 13.9609 14.1006 16.2553L8.57848 30.5661H8.18959Z" fill="#F2EFEA"/>
<path d="M32.6682 25.4718L32.8627 25.5885C31.8904 28.6606 29.246 30.8772 25.3961 30.8772C20.2629 30.8772 16.8407 26.9495 16.8407 21.3496C16.8407 15.1664 21.1573 11.1998 25.6683 11.1998C30.1794 11.1998 33.096 15.0886 32.7849 18.7052H19.8351C19.7962 18.8997 19.7962 19.133 19.7962 19.3663V20.0274C19.7962 25.2773 22.2851 28.3884 26.6794 28.3884C29.0516 28.3884 31.3071 27.4551 32.6682 25.4718ZM25.5128 11.8998C22.4017 11.8998 20.4184 14.3498 19.9129 18.083L29.6349 17.8886V17.5775C29.6349 13.6887 28.1961 11.8998 25.5128 11.8998Z" fill="#F2EFEA"/>
<path d="M35.6556 30.2939V30.2162C36.2778 29.0106 36.5112 27.7662 36.5112 25.3162V5.52213C36.5112 3.69438 35.6556 2.68329 34.7612 1.94441V1.86664L39.35 0V25.2773C39.35 27.7273 39.4667 29.0106 40.2055 30.2162V30.2939H35.6556Z" fill="#F2EFEA"/>
<path d="M49.3373 29.1662C51.0873 29.1662 52.7206 28.4273 53.615 27.5329V21.0774C49.9984 21.6996 46.1484 23.2163 46.1484 26.3273C46.1484 27.9995 47.1595 29.1662 49.3373 29.1662ZM56.4927 30.7606C54.665 30.7606 53.7705 29.6328 53.615 28.194C52.3317 29.6328 50.2317 30.8772 47.7429 30.8772C45.2151 30.8772 43.3874 29.5939 43.3874 27.2218C43.3874 22.9441 49.3373 20.9996 53.615 20.4941V16.6053C53.615 14.5442 52.7206 12.9109 49.6095 12.9109C47.7818 12.9109 45.7985 13.4942 44.2818 14.622L44.0874 14.3886C45.6429 12.522 48.1706 11.1998 51.2817 11.1998C55.4816 11.1998 56.4538 13.4553 56.4538 15.9053V27.3384C56.4538 28.3106 56.8816 29.0106 57.9705 29.0106C58.7093 29.0106 59.2538 28.6606 59.8371 28.194L59.9538 28.2717C59.5649 29.2828 58.5538 30.7606 56.4927 30.7606Z" fill="#F2EFEA"/>
</svg>
